<?xml version="1.0" encoding="UTF-8"?>
<svg id="Capa_1" data-name="Capa 1" xmlns="http://www.w3.org/2000/svg" viewBox="0 0 91.6 91.6">
  <defs>
    <style>
      .cls-1 {
        fill: #0e1c2d;
      }

      .cls-2 {
        fill: #f1edee;
      }
    </style>
  </defs>
  <circle class="cls-1" cx="45.8" cy="45.8" r="45.8"/>
  <g>
    <path class="cls-2" d="M27.18,65.01c-4.91,0-9.74-2.01-13.33-5.56-3.78-3.74-5.9-8.86-5.81-14.05.18-10.17,8.52-18.65,18.6-18.9h0c5.13-.13,10.21,1.96,13.92,5.73,3.79,3.84,5.84,9.06,5.64,14.31-.19,4.77-2.18,9.31-5.62,12.79-3.48,3.52-8.06,5.54-12.89,5.68-.17,0-.35,0-.52,0ZM26.84,34.53c-5.73.14-10.66,5.18-10.76,11-.05,3.01,1.19,5.99,3.42,8.19,2.2,2.17,5.02,3.33,7.96,3.23,5.68-.16,10.48-4.98,10.7-10.74.12-3.04-1.09-6.08-3.33-8.35-2.19-2.22-5.04-3.41-8-3.33h0Z"/>
    <path class="cls-2" d="M68.96,44.78l14.56-18.27-10.23.03-14.3,17.94v-17.94h-8v27.98l-1.11,1.39c-1.96,2.09-5.91,1.37-8.27-.62l-9.94-8.58-5.25,6,9.96,8.59.03.03c2.77,2.34,6.55,3.78,10.27,3.78,3.39,0,6.75-1.2,9.25-4l.07-.08,7.79-9.77,9.94,13.85h9.83l-14.6-20.34Z"/>
  </g>
</svg>